# xmcd
#
# Track frame offsets:
#	150
#	19062
#	36737
#	64310
#	71936
#	95046
#	128442
#	131840
#	154096
#	187674
#	199219
#	211504
#
# Disc length: 2954 seconds
#
# Revision: 2
# Processed by: cddbd v1.5.1PL2 Copyright (c) Steve Scherf et al.
# Submitted via: EasyCDDAExtractor 8.0.2.1
#
DISCID=af0b880c
DTITLE=Dio - The Palladium Worcester 08-12-00 Disc 2
DYEAR=2000
DGENRE=Hard Rock
TTITLE0=Challis
TTITLE1=Losing My Insanity
TTITLE2=Otherworld
TTITLE3=Magica Reprise
TTITLE4=Holy Diver
TTITLE5=Heaven and Hell
TTITLE6=Encore Cheers
TTITLE7=Rainbow In The Dark
TTITLE8=The Last In Line
TTITLE9=Man On The Silver Mountain
TTITLE10=Long Live Rock and Roll
TTITLE11=Man On The Silver Mountain Reprise
EXTD=
EXTT0=
EXTT1=
EXTT2=
EXTT3=
EXTT4=
EXTT5=
EXTT6=
EXTT7=
EXTT8=
EXTT9=
EXTT10=
EXTT11=
PLAYORDER=
